<?xml version="1.0" encoding="UTF-8" standalone="no"?>
<!-- Created with Inkscape (http://www.inkscape.org/) -->

<svg
   xmlns:dc="http://purl.org/dc/elements/1.1/"
   xmlns:cc="http://creativecommons.org/ns#"
   xmlns:rdf="http://www.w3.org/1999/02/22-rdf-syntax-ns#"
   xmlns:svg="http://www.w3.org/2000/svg"
   xmlns="http://www.w3.org/2000/svg"
   xmlns:sodipodi="http://sodipodi.sourceforge.net/DTD/sodipodi-0.dtd"
   xmlns:inkscape="http://www.inkscape.org/namespaces/inkscape"
   version="1.1"
   id="svg2"
   xml:space="preserve"
   width="871.26794"
   height="349.59869"
   viewBox="0 0 871.27026 349.59869"
   sodipodi:docname="logo-mc-claro-horizontal.svg"
   inkscape:version="0.92.3 (2405546, 2018-03-11)"><metadata
     id="metadata8"><rdf:RDF><cc:Work
         rdf:about=""><dc:format>image/svg+xml</dc:format><dc:type
           rdf:resource="http://purl.org/dc/dcmitype/StillImage" /><dc:title></dc:title></cc:Work></rdf:RDF></metadata><defs
     id="defs6"><clipPath
       clipPathUnits="userSpaceOnUse"
       id="clipPath34"><path
         d="M 0,609.449 H 793.701 V 0 H 0 Z"
         id="path32"
         inkscape:connector-curvature="0" /></clipPath></defs><sodipodi:namedview
     pagecolor="#ffffff"
     bordercolor="#666666"
     borderopacity="1"
     objecttolerance="10"
     gridtolerance="10"
     guidetolerance="10"
     inkscape:pageopacity="0"
     inkscape:pageshadow="2"
     inkscape:window-width="1920"
     inkscape:window-height="982"
     id="namedview4"
     showgrid="false"
     inkscape:zoom="0.82144951"
     inkscape:cx="580.82249"
     inkscape:cy="121.18228"
     inkscape:window-x="0"
     inkscape:window-y="27"
     inkscape:window-maximized="1"
     inkscape:current-layer="g30" /><g
     id="g10"
     inkscape:groupmode="layer"
     inkscape:label="MAGDALENA_logo_horizontal"
     transform="matrix(1.3333333,0,0,-1.3333333,0,349.59512)"><g
       id="g28"><g
         id="g30"
         clip-path="url(#clipPath34)"><g
           id="g1007"
           transform="translate(-69.650476,-170.0827)"><g
             transform="translate(305.2148,378.6505)"
             id="g12"><path
               inkscape:connector-curvature="0"
               id="path14"
               style="fill:#d1b888;fill-opacity:1;fill-rule:nonzero;stroke:none"
               d="m 0,0 h 6.032 v -21.149 h 13.069 v -4.915 H 0 Z" /></g><g
             transform="translate(352.3906,362.7516)"
             id="g16"><path
               inkscape:connector-curvature="0"
               id="path18"
               style="fill:#d1b888;fill-opacity:1;fill-rule:nonzero;stroke:none"
               d="M 0,0 -4.133,9.979 -8.266,0 Z m 1.899,-4.58 h -12.102 l -2.308,-5.585 h -6.181 l 11.617,26.064 h 5.958 L 10.537,-10.165 H 4.208 Z" /></g><g
             transform="translate(418.2949,352.5865)"
             id="g20"><path
               inkscape:connector-curvature="0"
               id="path22"
               style="fill:#d1b888;fill-opacity:1;fill-rule:nonzero;stroke:none"
               d="M 0,0 -0.038,15.638 -7.708,2.755 h -2.718 l -7.633,12.548 V 0 h -5.66 v 26.064 h 4.99 L -8.974,9.867 0.633,26.064 H 5.585 L 5.66,0 Z" /></g><g
             transform="translate(454.5981,362.7516)"
             id="g24"><path
               inkscape:connector-curvature="0"
               id="path26"
               style="fill:#d1b888;fill-opacity:1;fill-rule:nonzero;stroke:none"
               d="M 0,0 -4.133,9.979 -8.266,0 Z m 1.899,-4.58 h -12.101 l -2.309,-5.585 h -6.18 l 11.616,26.064 h 5.958 L 10.537,-10.165 H 4.208 Z" /></g><g
             transform="translate(494.29,366.0279)"
             id="g36"><path
               inkscape:connector-curvature="0"
               id="path38"
               style="fill:#d1b888;fill-opacity:1;fill-rule:nonzero;stroke:none"
               d="m 0,0 h 5.511 v -10.575 c -1.415,-1.067 -3.053,-1.886 -4.915,-2.457 -1.862,-0.571 -3.736,-0.857 -5.622,-0.857 -2.706,0 -5.139,0.577 -7.299,1.732 -2.159,1.154 -3.853,2.756 -5.082,4.803 -1.229,2.048 -1.843,4.362 -1.843,6.944 0,2.582 0.614,4.897 1.843,6.945 1.229,2.048 2.935,3.649 5.12,4.803 2.183,1.154 4.641,1.731 7.372,1.731 2.284,0 4.356,-0.385 6.218,-1.154 1.862,-0.769 3.426,-1.887 4.692,-3.351 L 2.123,4.99 c -1.862,1.96 -4.109,2.941 -6.74,2.941 -1.663,0 -3.14,-0.348 -4.431,-1.042 -1.291,-0.696 -2.296,-1.676 -3.016,-2.942 -0.72,-1.266 -1.08,-2.718 -1.08,-4.357 0,-1.613 0.36,-3.053 1.08,-4.319 0.72,-1.266 1.719,-2.252 2.998,-2.96 1.278,-0.707 2.736,-1.061 4.375,-1.061 1.737,0 3.301,0.372 4.691,1.117 z" /></g><g
             transform="translate(526.1255,357.5387)"
             id="g40"><path
               inkscape:connector-curvature="0"
               id="path42"
               style="fill:#d1b888;fill-opacity:1;fill-rule:nonzero;stroke:none"
               d="m 0,0 c 2.606,0 4.686,0.726 6.237,2.178 1.551,1.452 2.327,3.419 2.327,5.902 0,2.482 -0.776,4.449 -2.327,5.901 C 4.686,15.434 2.606,16.16 0,16.16 H -5.511 V 0 Z m -11.542,21.112 h 11.84 c 2.83,0 5.33,-0.54 7.503,-1.62 2.172,-1.079 3.86,-2.6 5.064,-4.561 C 14.068,12.97 14.67,10.686 14.67,8.08 14.67,5.473 14.068,3.189 12.865,1.229 11.661,-0.732 9.973,-2.253 7.801,-3.333 5.628,-4.413 3.128,-4.952 0.298,-4.952 h -11.84 z" /></g><g
             transform="translate(569.4292,362.7516)"
             id="g44"><path
               inkscape:connector-curvature="0"
               id="path46"
               style="fill:#d1b888;fill-opacity:1;fill-rule:nonzero;stroke:none"
               d="M 0,0 -4.133,9.979 -8.266,0 Z m 1.899,-4.58 h -12.102 l -2.308,-5.585 h -6.181 l 11.617,26.064 h 5.958 L 10.537,-10.165 H 4.208 Z" /></g><g
             transform="translate(591.8813,378.6505)"
             id="g48"><path
               inkscape:connector-curvature="0"
               id="path50"
               style="fill:#d1b888;fill-opacity:1;fill-rule:nonzero;stroke:none"
               d="m 0,0 h 6.032 v -21.149 h 13.07 v -4.915 H 0 Z" /></g><g
             transform="translate(643.749,357.4268)"
             id="g52"><path
               inkscape:connector-curvature="0"
               id="path54"
               style="fill:#d1b888;fill-opacity:1;fill-rule:nonzero;stroke:none"
               d="M 0,0 V -4.84 H -20.182 V 21.224 H -0.484 V 16.383 H -14.187 V 10.724 H -2.085 V 6.032 H -14.187 V 0 Z" /></g><g
             transform="translate(681.6533,378.6505)"
             id="g56"><path
               inkscape:connector-curvature="0"
               id="path58"
               style="fill:#d1b888;fill-opacity:1;fill-rule:nonzero;stroke:none"
               d="m 0,0 v -26.064 h -4.953 l -12.994,15.825 v -15.825 h -5.958 V 0 h 4.989 L -5.958,-15.825 V 0 Z" /></g><g
             transform="translate(712.2974,362.7516)"
             id="g60"><path
               inkscape:connector-curvature="0"
               id="path62"
               style="fill:#d1b888;fill-opacity:1;fill-rule:nonzero;stroke:none"
               d="M 0,0 -4.133,9.979 -8.266,0 Z m 1.899,-4.58 h -12.102 l -2.308,-5.585 h -6.181 l 11.617,26.064 h 5.958 L 10.537,-10.165 H 4.208 Z" /></g><g
             transform="translate(312.1216,301.815)"
             id="g64"><path
               inkscape:connector-curvature="0"
               id="path66"
               style="fill:#d1b888;fill-opacity:1;fill-rule:nonzero;stroke:none"
               d="m 0,0 c -2.147,1.154 -3.835,2.755 -5.064,4.803 -1.228,2.048 -1.843,4.362 -1.843,6.944 0,2.582 0.615,4.897 1.843,6.944 1.229,2.049 2.917,3.649 5.064,4.804 2.147,1.154 4.562,1.731 7.243,1.731 2.258,0 4.3,-0.397 6.125,-1.191 1.824,-0.795 3.357,-1.937 4.598,-3.426 l -3.872,-3.574 c -1.763,2.035 -3.947,3.053 -6.553,3.053 -1.615,0 -3.054,-0.354 -4.32,-1.061 C 1.955,18.319 0.968,17.333 0.261,16.066 -0.446,14.801 -0.8,13.36 -0.8,11.747 -0.8,10.133 -0.446,8.694 0.261,7.428 0.968,6.162 1.955,5.175 3.221,4.468 4.487,3.76 5.926,3.407 7.541,3.407 c 2.606,0 4.79,1.03 6.553,3.09 L 17.966,2.922 C 16.725,1.408 15.186,0.254 13.349,-0.54 11.512,-1.334 9.464,-1.731 7.205,-1.731 4.549,-1.731 2.147,-1.154 0,0" /></g><g
             transform="translate(359.5767,306.2828)"
             id="g68"><path
               inkscape:connector-curvature="0"
               id="path70"
               style="fill:#d1b888;fill-opacity:1;fill-rule:nonzero;stroke:none"
               d="m 0,0 c 1.241,0.708 2.216,1.694 2.923,2.96 0.708,1.266 1.061,2.706 1.061,4.319 0,1.614 -0.353,3.054 -1.061,4.32 -0.707,1.266 -1.682,2.253 -2.923,2.96 -1.242,0.707 -2.631,1.061 -4.17,1.061 -1.539,0 -2.929,-0.354 -4.17,-1.061 -1.242,-0.707 -2.216,-1.694 -2.923,-2.96 -0.708,-1.266 -1.061,-2.706 -1.061,-4.32 0,-1.613 0.353,-3.053 1.061,-4.319 0.707,-1.266 1.681,-2.252 2.923,-2.96 1.241,-0.708 2.631,-1.061 4.17,-1.061 1.539,0 2.928,0.353 4.17,1.061 m -11.487,-4.449 c -2.172,1.166 -3.872,2.774 -5.101,4.822 -1.228,2.047 -1.843,4.35 -1.843,6.906 0,2.557 0.615,4.86 1.843,6.908 1.229,2.047 2.929,3.654 5.101,4.821 2.172,1.167 4.611,1.75 7.317,1.75 2.705,0 5.138,-0.583 7.298,-1.75 2.16,-1.167 3.86,-2.774 5.101,-4.821 C 9.47,12.139 10.091,9.836 10.091,7.279 10.091,4.723 9.47,2.42 8.229,0.373 6.988,-1.675 5.288,-3.283 3.128,-4.449 c -2.16,-1.167 -4.593,-1.75 -7.298,-1.75 -2.706,0 -5.145,0.583 -7.317,1.75" /></g><g
             transform="translate(407.311,326.5943)"
             id="g72"><path
               inkscape:connector-curvature="0"
               id="path74"
               style="fill:#d1b888;fill-opacity:1;fill-rule:nonzero;stroke:none"
               d="m 0,0 v -26.064 h -4.952 l -12.995,15.825 v -15.825 h -5.957 V 0 h 4.989 L -5.957,-15.825 V 0 Z" /></g><g
             transform="translate(428.0884,321.6793)"
             id="g76"><path
               inkscape:connector-curvature="0"
               id="path78"
               style="fill:#d1b888;fill-opacity:1;fill-rule:nonzero;stroke:none"
               d="M 0,0 H -8.341 V 4.915 H 14.373 V 0 H 6.032 V -21.149 H 0 Z" /></g><g
             transform="translate(469.9771,320.5064)"
             id="g80"><path
               inkscape:connector-curvature="0"
               id="path82"
               style="fill:#d1b888;fill-opacity:1;fill-rule:nonzero;stroke:none"
               d="m 0,0 c -0.944,0.782 -2.321,1.173 -4.133,1.173 h -4.915 v -9.085 h 4.915 c 1.812,0 3.189,0.396 4.133,1.191 0.943,0.795 1.415,1.911 1.415,3.351 C 1.415,-1.905 0.943,-0.782 0,0 m 1.527,-19.977 -5.027,7.262 h -0.298 -5.25 v -7.262 H -15.08 V 6.088 H -3.798 C -1.49,6.088 0.515,5.703 2.215,4.934 3.916,4.164 5.225,3.072 6.144,1.657 7.062,0.242 7.521,-1.434 7.521,-3.37 7.521,-5.306 7.056,-6.976 6.125,-8.377 5.194,-9.78 3.872,-10.854 2.16,-11.599 l 5.845,-8.378 z" /></g><g
             transform="translate(511.6421,305.3707)"
             id="g84"><path
               inkscape:connector-curvature="0"
               id="path86"
               style="fill:#d1b888;fill-opacity:1;fill-rule:nonzero;stroke:none"
               d="M 0,0 V -4.841 H -20.181 V 21.224 H -0.484 V 16.383 H -14.187 V 10.724 H -2.085 V 6.032 H -14.187 V 0 Z" /></g><g
             transform="translate(540.7217,320.5064)"
             id="g88"><path
               inkscape:connector-curvature="0"
               id="path90"
               style="fill:#d1b888;fill-opacity:1;fill-rule:nonzero;stroke:none"
               d="m 0,0 c -0.944,0.782 -2.321,1.173 -4.133,1.173 h -4.915 v -9.085 h 4.915 c 1.812,0 3.189,0.396 4.133,1.191 0.943,0.795 1.415,1.911 1.415,3.351 C 1.415,-1.905 0.943,-0.782 0,0 m 1.527,-19.977 -5.027,7.262 h -0.298 -5.25 v -7.262 H -15.08 V 6.088 h 11.282 c 2.309,0 4.313,-0.385 6.014,-1.154 C 3.916,4.164 5.225,3.072 6.144,1.657 7.062,0.242 7.521,-1.434 7.521,-3.37 7.521,-5.306 7.056,-6.976 6.125,-8.377 5.194,-9.78 3.873,-10.854 2.16,-11.599 l 5.846,-8.378 z" /></g><g
             transform="translate(577.4722,310.6954)"
             id="g92"><path
               inkscape:connector-curvature="0"
               id="path94"
               style="fill:#d1b888;fill-opacity:1;fill-rule:nonzero;stroke:none"
               d="M 0,0 -4.133,9.979 -8.266,0 Z m 1.899,-4.58 h -12.102 l -2.308,-5.586 h -6.181 l 11.617,26.065 h 5.958 l 11.654,-26.065 h -6.33 z" /></g><g
             transform="translate(602.5117,300.9205)"
             id="g96"><path
               inkscape:connector-curvature="0"
               id="path98"
               style="fill:#d1b888;fill-opacity:1;fill-rule:nonzero;stroke:none"
               d="m 0,0 c -1.923,0.56 -3.469,1.285 -4.635,2.179 l 2.048,4.543 C -1.471,5.902 -0.143,5.244 1.397,4.748 2.936,4.251 4.475,4.003 6.014,4.003 c 1.713,0 2.979,0.255 3.798,0.764 0.819,0.508 1.229,1.185 1.229,2.029 0,0.62 -0.243,1.136 -0.727,1.545 C 9.83,8.75 9.209,9.079 8.453,9.328 7.695,9.576 6.671,9.849 5.381,10.147 3.395,10.618 1.769,11.09 0.503,11.562 c -1.266,0.471 -2.352,1.229 -3.258,2.271 -0.907,1.043 -1.359,2.433 -1.359,4.17 0,1.514 0.409,2.886 1.229,4.115 0.819,1.229 2.053,2.203 3.705,2.923 1.65,0.72 3.667,1.08 6.05,1.08 1.663,0 3.289,-0.2 4.878,-0.596 1.588,-0.398 2.979,-0.968 4.17,-1.713 l -1.861,-4.58 c -2.409,1.365 -4.817,2.048 -7.224,2.048 -1.688,0 -2.936,-0.273 -3.742,-0.819 -0.807,-0.546 -1.21,-1.266 -1.21,-2.16 0,-0.893 0.465,-1.557 1.396,-1.991 0.931,-0.435 2.351,-0.863 4.264,-1.285 1.985,-0.472 3.611,-0.944 4.877,-1.415 1.266,-0.472 2.352,-1.216 3.258,-2.234 0.906,-1.019 1.359,-2.396 1.359,-4.133 0,-1.49 -0.415,-2.849 -1.247,-4.077 C 14.956,1.937 13.708,0.963 12.046,0.242 10.382,-0.478 8.359,-0.837 5.977,-0.837 3.916,-0.837 1.924,-0.558 0,0" /></g><path
             inkscape:connector-curvature="0"
             id="path100"
             style="fill:#d1b888;fill-opacity:1;fill-rule:nonzero;stroke:none"
             d="M 566.576,272.755 H 305.125 v 1.808 h 261.451 z" /><g
             transform="translate(319.3203,236.3697)"
             id="g102"><path
               inkscape:connector-curvature="0"
               id="path104"
               style="fill:#d1b888;fill-opacity:1;fill-rule:nonzero;stroke:none"
               d="M 0,0 -3.674,8.518 -7.321,0 Z m 1.197,-2.839 h -9.742 l -1.921,-4.51 h -3.73 l 8.768,19.486 h 3.563 L 6.931,-7.349 H 3.146 Z" /></g><g
             transform="translate(344.9849,248.5064)"
             id="g106"><path
               inkscape:connector-curvature="0"
               id="path108"
               style="fill:#d1b888;fill-opacity:1;fill-rule:nonzero;stroke:none"
               d="m 0,0 h 3.618 v -16.424 h 10.188 v -3.061 H 0 Z" /></g><g
             transform="translate(381.2407,230.0377)"
             id="g110"><path
               inkscape:connector-curvature="0"
               id="path112"
               style="fill:#d1b888;fill-opacity:1;fill-rule:nonzero;stroke:none"
               d="m 0,0 c -1.586,0.862 -2.83,2.055 -3.73,3.576 -0.9,1.522 -1.35,3.238 -1.35,5.15 0,1.911 0.455,3.628 1.364,5.15 0.909,1.52 2.157,2.714 3.744,3.576 1.586,0.863 3.363,1.295 5.33,1.295 1.596,0 3.053,-0.278 4.371,-0.835 1.317,-0.557 2.43,-1.364 3.34,-2.422 L 10.73,13.291 c -1.41,1.522 -3.145,2.282 -5.205,2.282 -1.336,0 -2.533,-0.292 -3.59,-0.876 C 0.877,14.112 0.051,13.3 -0.542,12.261 -1.137,11.222 -1.434,10.044 -1.434,8.726 -1.434,7.408 -1.137,6.229 -0.542,5.19 0.051,4.151 0.877,3.34 1.935,2.755 2.992,2.171 4.189,1.878 5.525,1.878 c 2.06,0 3.795,0.77 5.205,2.31 L 13.069,1.962 C 12.159,0.904 11.042,0.097 9.715,-0.46 8.388,-1.017 6.926,-1.295 5.331,-1.295 3.363,-1.295 1.586,-0.863 0,0" /></g><g
             transform="translate(425.0674,236.3697)"
             id="g114"><path
               inkscape:connector-curvature="0"
               id="path116"
               style="fill:#d1b888;fill-opacity:1;fill-rule:nonzero;stroke:none"
               d="M 0,0 -3.674,8.518 -7.321,0 Z m 1.197,-2.839 h -9.742 l -1.921,-4.51 h -3.73 l 8.768,19.486 h 3.563 L 6.931,-7.349 H 3.146 Z" /></g><g
             transform="translate(450.7319,248.5064)"
             id="g118"><path
               inkscape:connector-curvature="0"
               id="path120"
               style="fill:#d1b888;fill-opacity:1;fill-rule:nonzero;stroke:none"
               d="m 0,0 h 3.619 v -16.424 h 10.187 v -3.061 H 0 Z" /></g><g
             transform="translate(492.0117,232.0826)"
             id="g122"><path
               inkscape:connector-curvature="0"
               id="path124"
               style="fill:#d1b888;fill-opacity:1;fill-rule:nonzero;stroke:none"
               d="M 0,0 C 1.429,0 2.687,0.274 3.772,0.821 4.857,1.369 5.693,2.148 6.277,3.16 6.862,4.171 7.154,5.345 7.154,6.681 7.154,8.018 6.862,9.19 6.277,10.202 5.693,11.213 4.857,11.993 3.772,12.54 2.687,13.088 1.429,13.361 0,13.361 H -4.732 V 0 Z m -8.351,16.424 h 8.518 c 2.079,0 3.925,-0.404 5.54,-1.211 C 7.321,14.405 8.573,13.264 9.464,11.789 10.355,10.313 10.8,8.61 10.8,6.681 10.8,4.751 10.355,3.049 9.464,1.573 8.573,0.098 7.321,-1.044 5.707,-1.851 4.092,-2.658 2.246,-3.062 0.167,-3.062 h -8.518 z" /></g><path
             inkscape:connector-curvature="0"
             id="path126"
             style="fill:#d1b888;fill-opacity:1;fill-rule:nonzero;stroke:none"
             d="m 522.909,248.506 h 3.619 v -19.485 h -3.619 z m 3.229,5.4 h 4.092 l -4.843,-3.814 h -3.007 z" /><g
             transform="translate(559.4849,236.3697)"
             id="g128"><path
               inkscape:connector-curvature="0"
               id="path130"
               style="fill:#d1b888;fill-opacity:1;fill-rule:nonzero;stroke:none"
               d="M 0,0 -3.674,8.518 -7.321,0 Z m 1.197,-2.839 h -9.742 l -1.921,-4.51 h -3.73 l 8.768,19.486 h 3.563 L 6.931,-7.349 H 3.146 Z" /></g><g
             style="fill:#d1b888;fill-opacity:1;stroke:none"
             transform="translate(248.9814,279.9332)"
             id="g132"><path
               inkscape:connector-curvature="0"
               id="path134"
               style="fill:#d1b888;fill-opacity:1;fill-rule:nonzero;stroke:none"
               d="m 0,0 c -0.044,0.051 -0.078,0.106 -0.125,0.154 l -35.789,35.788 c -0.223,0.223 -0.475,0.392 -0.738,0.537 8.385,8.647 13.801,20.181 14.593,32.952 H 23.603 V 23.603 Z m -97.057,-47.695 57.216,57.215 24.68,-24.68 -32.535,-32.535 z M 23.521,-69.658 c -1.714,0.672 -3.218,1.86 -4.955,3.247 -3.114,2.485 -6.989,5.579 -13.128,5.579 -6.231,0 -9.82,-3.152 -12.703,-5.686 -2.461,-2.162 -4.24,-3.723 -7.339,-3.723 -3.17,0 -5.133,1.688 -7.618,3.826 -2.891,2.487 -6.488,5.583 -12.425,5.583 -6.007,0 -9.797,-3.161 -12.842,-5.701 -2.757,-2.299 -4.579,-3.708 -7.2,-3.708 -2.69,0 -4.607,1.452 -7.512,3.822 -3.05,2.489 -6.846,5.587 -12.53,5.587 -6.224,0 -9.72,-3.128 -12.529,-5.641 -2.446,-2.187 -4.212,-3.768 -7.514,-3.768 -3.382,0 -5.344,1.714 -7.827,3.884 -2.817,2.461 -6.323,5.525 -12.215,5.525 -5.825,0 -9.112,-2.999 -11.754,-5.409 -2.45,-2.235 -4.385,-4 -8.288,-4 -3.825,0 -5.576,1.633 -8.001,3.892 -2.636,2.458 -5.917,5.517 -12.042,5.517 -6.186,0 -9.523,-3.108 -12.204,-5.606 -1.551,-1.445 -2.829,-2.617 -4.503,-3.261 v 15.497 H 23.521 Z M 5.438,-93.427 c -6.231,0 -9.82,-3.152 -12.703,-5.685 -2.461,-2.162 -4.24,-3.724 -7.339,-3.724 -3.17,0 -5.133,1.689 -7.618,3.826 -2.891,2.488 -6.488,5.583 -12.425,5.583 -6.007,0 -9.797,-3.161 -12.842,-5.701 -2.757,-2.299 -4.579,-3.708 -7.2,-3.708 -2.69,0 -4.607,1.452 -7.512,3.822 -3.05,2.49 -6.846,5.587 -12.53,5.587 -6.224,0 -9.72,-3.128 -12.529,-5.641 -2.446,-2.188 -4.212,-3.768 -7.514,-3.768 -3.382,0 -5.344,1.714 -7.827,3.884 -2.817,2.462 -6.323,5.525 -12.215,5.525 -5.825,0 -9.112,-3 -11.754,-5.409 -2.45,-2.235 -4.385,-4 -8.288,-4 -3.825,0 -5.576,1.633 -8.001,3.893 -2.636,2.458 -5.917,5.516 -12.042,5.516 -6.186,0 -9.523,-3.108 -12.204,-5.606 -1.551,-1.445 -2.829,-2.616 -4.503,-3.261 v 9.557 c 4.176,0.823 6.774,3.24 8.938,5.257 2.406,2.241 4.144,3.86 7.769,3.86 3.563,0 5.258,-1.581 7.606,-3.77 2.695,-2.512 6.05,-5.639 12.437,-5.639 6.426,0 9.89,3.16 12.674,5.7 2.36,2.153 4.065,3.709 7.368,3.709 3.45,0 5.428,-1.73 7.934,-3.919 2.799,-2.445 6.283,-5.49 12.108,-5.49 5.787,0 9.15,3.008 11.852,5.425 2.488,2.226 4.454,3.984 8.191,3.984 3.366,0 5.707,-1.91 8.417,-4.121 3.037,-2.479 6.48,-5.288 11.625,-5.288 5.111,0 8.435,2.772 11.368,5.218 2.696,2.248 5.025,4.191 8.674,4.191 3.522,0 5.578,-1.769 8.182,-4.009 2.797,-2.406 6.277,-5.4 11.861,-5.4 5.552,0 8.923,2.962 11.633,5.342 2.587,2.272 4.63,4.067 8.409,4.067 3.86,0 6.273,-1.927 9.068,-4.157 2.47,-1.972 5.206,-4.15 9.015,-4.941 v -9.535 c -1.714,0.671 -3.218,1.86 -4.955,3.247 -3.114,2.485 -6.989,5.579 -13.128,5.579 M -149.5,144.262 h 2.573 l -0.001,-0.001 35.475,-35.474 c -8.328,-8.637 -13.705,-20.128 -14.494,-32.849 h -45.661 v 46.265 c 0,12.163 9.917,22.059 22.108,22.059 m 72.243,-19.634 c -11.091,-0.688 -21.249,-4.861 -29.395,-11.44 l -31.074,31.074 h 60.469 z m 66.977,19.634 -31.074,-31.074 c -8.146,6.579 -18.304,10.752 -29.396,11.44 v 19.634 z M -74.003,27.135 c -2.529,0 -5.053,0.22 -7.531,0.632 0.513,2.21 0.793,4.508 0.793,6.872 0,13.801 -11.236,25.031 -25.046,25.031 -3.975,0 -7.678,-1.144 -10.836,-3.092 -1.943,5.133 -2.929,10.54 -2.929,16.107 0,25.115 20.433,45.548 45.549,45.548 25.116,0 45.549,-20.433 45.549,-45.548 0,-25.117 -20.433,-45.55 -45.549,-45.55 m 3.253,-6.395 c 11.171,0.693 21.397,4.919 29.572,11.579 0.157,-0.353 0.373,-0.688 0.663,-0.978 L -4.727,-4.447 c 0.048,-0.048 0.104,-0.081 0.154,-0.125 l -5.987,-5.988 -26.981,26.982 c -1.27,1.27 -3.33,1.27 -4.601,0 L -70.75,-12.187 Z m -55.199,48.691 c 0.368,-6.01 1.751,-11.837 4.139,-17.365 -2.927,-3.57 -4.688,-8.13 -4.688,-13.096 0,-9.503 7.736,-17.234 17.245,-17.234 7.98,0 14.472,6.488 14.472,14.463 0,1.864 -1.513,3.376 -3.379,3.376 -1.866,0 -3.379,-1.512 -3.379,-3.376 0,-4.251 -3.46,-7.71 -7.714,-7.71 -5.783,0 -10.487,4.702 -10.487,10.481 0,7.69 6.259,13.947 13.953,13.947 10.084,0 18.288,-8.199 18.288,-18.278 0,-13.063 -10.633,-23.689 -23.704,-23.689 -8.524,0 -14.171,1.847 -20.15,3.802 -6.661,2.178 -13.552,4.434 -24.02,3.727 -6.894,-0.465 -12.415,-2.205 -16.235,-3.842 v 4.495 c 2.804,1.487 8.675,4.045 16.69,4.584 7.314,0.487 12.433,-0.648 16.871,-1.955 1.789,-0.518 3.669,0.498 4.195,2.285 0.528,1.79 -0.496,3.667 -2.286,4.194 -4.799,1.412 -10.84,2.783 -19.235,2.213 -6.895,-0.464 -12.416,-2.203 -16.235,-3.84 v 42.818 z m 149.47,-155.37 c -1.714,0.671 -3.218,1.86 -4.955,3.247 -3.114,2.485 -6.989,5.579 -13.128,5.579 -6.231,0 -9.82,-3.153 -12.703,-5.685 -2.461,-2.162 -4.24,-3.724 -7.339,-3.724 -3.17,0 -5.133,1.688 -7.618,3.826 -2.891,2.487 -6.488,5.583 -12.425,5.583 -6.007,0 -9.797,-3.161 -12.842,-5.701 -2.757,-2.299 -4.579,-3.708 -7.2,-3.708 -2.69,0 -4.607,1.453 -7.512,3.822 -3.05,2.489 -6.846,5.587 -12.53,5.587 -6.224,0 -9.72,-3.128 -12.529,-5.641 -2.446,-2.187 -4.212,-3.768 -7.514,-3.768 -3.382,0 -5.344,1.713 -7.827,3.883 -2.817,2.462 -6.323,5.526 -12.215,5.526 -5.825,0 -9.112,-2.999 -11.754,-5.409 -2.45,-2.235 -4.385,-4 -8.288,-4 -3.825,0 -5.576,1.632 -8.001,3.893 -2.636,2.457 -5.917,5.516 -12.042,5.516 -6.186,0 -9.523,-3.109 -12.204,-5.606 -1.551,-1.445 -2.829,-2.616 -4.503,-3.261 v 9.524 c 4.176,0.823 6.774,3.24 8.938,5.257 2.406,2.241 4.144,3.86 7.769,3.86 3.563,0 5.258,-1.581 7.606,-3.769 2.695,-2.513 6.05,-5.64 12.437,-5.64 6.426,0 9.89,3.16 12.674,5.7 2.36,2.153 4.065,3.709 7.368,3.709 3.45,0 5.428,-1.729 7.934,-3.918 2.799,-2.447 6.283,-5.491 12.108,-5.491 5.787,0 9.15,3.008 11.852,5.426 2.488,2.225 4.454,3.983 8.191,3.983 3.366,0 5.707,-1.91 8.417,-4.121 3.037,-2.479 6.48,-5.288 11.625,-5.288 5.111,0 8.435,2.772 11.368,5.218 2.696,2.249 5.025,4.191 8.674,4.191 3.522,0 5.578,-1.769 8.182,-4.009 2.797,-2.406 6.277,-5.4 11.861,-5.4 5.552,0 8.923,2.962 11.633,5.342 2.587,2.272 4.63,4.067 8.409,4.067 3.86,0 6.273,-1.927 9.068,-4.158 2.47,-1.971 5.206,-4.149 9.015,-4.941 z m -112.165,55.859 -20.474,20.474 c -1.271,1.27 -3.331,1.27 -4.601,0 l -38.089,-38.089 h -19.8 v 43.36 c 2.805,1.488 8.678,4.047 16.69,4.587 7.314,0.486 12.433,-0.648 16.871,-1.956 1.789,-0.518 3.669,0.498 4.195,2.285 0.528,1.791 -0.496,3.667 -2.286,4.194 -4.799,1.412 -10.84,2.782 -19.235,2.213 -6.894,-0.464 -12.415,-2.204 -16.235,-3.842 v 4.009 c 2.805,1.489 8.678,4.047 16.69,4.586 9.155,0.603 15.136,-1.337 21.463,-3.407 6.219,-2.033 12.651,-4.137 22.252,-4.137 12.109,0 22.588,7.098 27.495,17.348 2.124,-0.4 4.281,-0.67 6.451,-0.805 v -39.154 c 0,-0.087 0.019,-0.168 0.026,-0.254 z m -53.962,-17.615 31.188,31.187 18.173,-18.174 -13.014,-13.013 z M 23.603,122.203 V 75.938 h -45.662 c -0.789,12.721 -6.166,24.212 -14.494,32.849 l 35.475,35.474 -10e-4,0.001 h 2.573 c 12.191,0 22.109,-9.896 22.109,-22.059 M 1.494,150.769 H -70.75 -77.257 -149.5 c -15.779,0 -28.615,-12.815 -28.615,-28.566 V -106.09 c 0,-1.797 1.456,-3.253 3.253,-3.253 0.029,0 0.055,0.007 0.083,0.008 0.028,-0.001 0.054,-0.008 0.083,-0.008 6.069,0 9.372,3.076 12.026,5.549 2.406,2.24 4.144,3.86 7.769,3.86 3.563,0 5.258,-1.582 7.606,-3.769 2.695,-2.513 6.05,-5.64 12.437,-5.64 6.426,0 9.89,3.16 12.674,5.699 2.36,2.154 4.065,3.71 7.368,3.71 3.45,0 5.428,-1.729 7.934,-3.919 2.799,-2.446 6.283,-5.49 12.108,-5.49 5.787,0 9.15,3.008 11.852,5.425 2.488,2.226 4.454,3.984 8.191,3.984 3.366,0 5.707,-1.91 8.417,-4.121 3.037,-2.479 6.48,-5.288 11.625,-5.288 5.111,0 8.435,2.773 11.368,5.218 2.696,2.249 5.025,4.191 8.674,4.191 3.522,0 5.578,-1.769 8.182,-4.008 2.797,-2.407 6.277,-5.401 11.861,-5.401 5.552,0 8.923,2.962 11.633,5.342 2.587,2.272 4.63,4.067 8.409,4.067 3.86,0 6.273,-1.926 9.068,-4.158 2.893,-2.309 6.15,-4.908 11.075,-5.22 0.371,-0.146 0.772,-0.233 1.194,-0.233 1.797,0 3.253,1.457 3.253,3.254 v 54.639 c 0.051,0.226 0.081,0.461 0.081,0.703 0,0.242 -0.03,0.476 -0.081,0.704 v 15.563 c 0,1.797 -1.456,3.254 -3.253,3.254 -1.797,0 -3.254,-1.457 -3.254,-3.254 V -47.695 H -38.494 L 23.603,14.4 V -2.146 c 0,-1.797 1.456,-3.253 3.253,-3.253 1.797,0 3.253,1.456 3.253,3.253 v 124.349 c 0,15.751 -12.837,28.566 -28.615,28.566" /></g></g></g></g></g></svg>